<svg width="106" height="24" viewBox="0 0 106 24" fill="none" xmlns="http://www.w3.org/2000/svg">
<path d="M105.53 21.4398L102.65 23.1038C102.106 23.1038 101.434 22.8158 101.082 22.4638C100.666 22.0478 100.442 21.5998 100.314 21.0878C99.0335 21.9518 97.4975 23.1038 96.6015 23.1038C94.2655 23.1038 92.6655 21.1518 92.6655 19.1678C92.6655 17.5678 93.4975 16.6078 95.2255 16.0318C97.1455 15.3598 99.5135 14.4958 100.218 13.9198V13.2798C100.218 11.0398 99.1935 9.75982 97.6575 9.75982C97.0815 9.75982 96.6015 9.98382 96.2815 10.3678C95.8975 10.8158 95.6095 11.5198 95.3535 12.5118C95.1935 13.0878 94.8415 13.3118 94.3295 13.3118C93.7215 13.3118 92.8255 12.6718 92.8255 11.9038C92.8255 11.3918 93.2415 11.0398 93.8815 10.5598C94.8095 9.88782 96.9535 8.67182 98.7775 8.31982C99.7695 8.31982 100.762 8.60782 101.466 9.18382C102.65 10.1438 102.97 11.4558 102.97 13.1838V19.0078C102.97 20.4478 103.514 20.8958 104.058 20.8958C104.442 20.8958 104.89 20.7358 105.21 20.5758L105.53 21.4398ZM100.218 20.0638V15.0398C99.5455 15.3918 98.2335 15.9998 97.5295 16.3198C96.3455 16.8958 95.6735 17.4718 95.6735 18.6558C95.6735 20.3198 96.9215 21.0878 97.8815 21.0878C98.6495 21.0878 99.6415 20.6078 100.218 20.0638Z" fill="white"/>
<path d="M85.115 11.7119H85.179C86.171 10.0159 87.515 8.31986 88.987 8.31986C90.139 8.31986 90.907 9.18386 90.907 9.98386C90.907 10.7199 90.459 11.3919 89.787 11.7119C89.403 11.8719 89.115 11.8079 88.923 11.6159C88.443 11.1679 88.059 10.9759 87.515 10.9759C86.747 10.9759 85.787 11.8079 85.115 13.5039V19.3919C85.115 21.4719 85.275 21.6639 87.739 21.8559V22.7199H80.123V21.8559C82.075 21.6639 82.299 21.4719 82.299 19.3919V12.7039C82.299 10.6559 82.139 10.5599 80.379 10.2719V9.53586C82.011 9.27986 83.483 8.89586 85.115 8.25586V11.7119Z" fill="white"/>
<path d="M78.8581 21.4398L75.9781 23.1038C75.4341 23.1038 74.7621 22.8158 74.4101 22.4638C73.9941 22.0478 73.7701 21.5998 73.6421 21.0878C72.3621 21.9518 70.8261 23.1038 69.9301 23.1038C67.5941 23.1038 65.9941 21.1518 65.9941 19.1678C65.9941 17.5678 66.8261 16.6078 68.5541 16.0318C70.4741 15.3598 72.8421 14.4958 73.5461 13.9198V13.2798C73.5461 11.0398 72.5221 9.75982 70.9861 9.75982C70.4101 9.75982 69.9301 9.98382 69.6101 10.3678C69.2261 10.8158 68.9381 11.5198 68.6821 12.5118C68.5221 13.0878 68.1701 13.3118 67.6581 13.3118C67.0501 13.3118 66.1541 12.6718 66.1541 11.9038C66.1541 11.3918 66.5701 11.0398 67.2101 10.5598C68.1381 9.88782 70.2821 8.67182 72.1061 8.31982C73.0981 8.31982 74.0901 8.60782 74.7941 9.18382C75.9781 10.1438 76.2981 11.4558 76.2981 13.1838V19.0078C76.2981 20.4478 76.8421 20.8958 77.3861 20.8958C77.7701 20.8958 78.2181 20.7358 78.5381 20.5758L78.8581 21.4398ZM73.5461 20.0638V15.0398C72.8741 15.3918 71.5621 15.9998 70.8581 16.3198C69.6741 16.8958 69.0021 17.4718 69.0021 18.6558C69.0021 20.3198 70.2501 21.0878 71.2101 21.0878C71.9781 21.0878 72.9701 20.6078 73.5461 20.0638Z" fill="white"/>
<path d="M63.7785 22.7201H56.8345V21.8561C58.6265 21.6641 58.9465 21.5041 58.9465 19.2961V13.9201C58.9465 11.5841 58.0825 10.3361 56.2585 10.3361C55.1705 10.3361 54.0505 10.9121 52.8665 11.8721C52.9305 12.2561 52.9625 12.6401 52.9625 13.2161V19.4881C52.9625 21.4721 53.2505 21.6641 54.9465 21.8561V22.7201H48.0025V21.8561C49.8905 21.6641 50.1465 21.5041 50.1465 19.4561V13.8881C50.1465 11.5201 49.2825 10.3041 47.4585 10.3041C46.2745 10.3041 45.0905 11.1041 44.1625 11.8721V19.4561C44.1625 21.4721 44.4185 21.6641 45.9225 21.8561V22.7201H39.0105V21.8561C41.0905 21.6641 41.3465 21.5041 41.3465 19.3921V12.7681C41.3465 10.7521 41.2505 10.5921 39.4585 10.3041V9.53612C40.8665 9.28012 42.5945 8.86412 44.1305 8.22412V10.8161C44.8025 10.3361 45.4745 9.79212 46.4025 9.21612C47.2665 8.67212 48.0345 8.32012 49.0585 8.32012C50.6265 8.32012 51.9705 9.31212 52.6105 10.9441C53.5385 10.2401 54.4345 9.66412 55.2025 9.15212C55.9065 8.70412 56.7385 8.32012 57.6345 8.32012C60.1945 8.32012 61.7625 10.1121 61.7625 13.2481V19.4241C61.7625 21.5361 61.9545 21.6321 63.7785 21.8561V22.7201Z" fill="white"/>
<path d="M33.4924 5.66404C32.5644 5.66404 31.7644 4.86404 31.7644 3.93604C31.7644 2.91204 32.5644 2.14404 33.5244 2.14404C34.4524 2.14404 35.2204 2.91204 35.2204 3.93604C35.2204 4.86404 34.4524 5.66404 33.4924 5.66404ZM37.3324 22.72H30.0684V21.856C32.0524 21.664 32.2764 21.472 32.2764 19.296V12.736C32.2764 10.72 32.1484 10.592 30.3244 10.304V9.50404C31.9884 9.24804 33.6204 8.83204 35.0924 8.28804V19.296C35.0924 21.472 35.2844 21.664 37.3324 21.856V22.72Z" fill="white"/>
<path d="M28.3146 22.72H20.9546V21.856C22.9706 21.632 23.2266 21.472 23.2266 19.36V4.288C23.2266 2.176 23.0346 2.08 21.0506 1.888V1.12C22.7466 0.927999 24.8266 0.384001 26.0106 0V19.36C26.0106 21.472 26.2666 21.664 28.3146 21.856V22.72Z" fill="white"/>
<path d="M18.336 17.0559L19.296 17.4079C18.848 18.8799 18.048 21.2799 17.472 22.3359C16.576 22.5599 13.856 23.1999 11.584 23.1999C3.52 23.1999 0 17.6639 0 12.6079C0 5.88794 5.152 1.43994 12.416 1.43994C15.008 1.43994 17.216 2.14394 18.08 2.30394C18.336 4.09594 18.56 5.43994 18.752 7.19994L17.76 7.42394C16.896 3.96794 14.88 2.65594 11.584 2.65594C6.368 2.65594 3.584 7.13594 3.584 11.9679C3.584 17.9199 7.008 21.9839 11.808 21.9839C14.976 21.9839 16.704 20.2239 18.336 17.0559Z" fill="white"/>
</svg>
