<svg width="106" height="24" viewBox="0 0 106 24" fill="none" xmlns="http://www.w3.org/2000/svg">
<path d="M105.53 21.4401L102.65 23.1041C102.106 23.1041 101.434 22.8161 101.082 22.4641C100.666 22.0481 100.442 21.6001 100.314 21.0881C99.0335 21.9521 97.4975 23.1041 96.6015 23.1041C94.2655 23.1041 92.6655 21.1521 92.6655 19.1681C92.6655 17.5681 93.4975 16.6081 95.2255 16.0321C97.1455 15.3601 99.5135 14.4961 100.218 13.9201V13.2801C100.218 11.0401 99.1935 9.76007 97.6575 9.76007C97.0815 9.76007 96.6015 9.98407 96.2815 10.3681C95.8975 10.8161 95.6095 11.5201 95.3535 12.5121C95.1935 13.0881 94.8415 13.3121 94.3295 13.3121C93.7215 13.3121 92.8255 12.6721 92.8255 11.9041C92.8255 11.3921 93.2415 11.0401 93.8815 10.5601C94.8095 9.88807 96.9535 8.67207 98.7775 8.32007C99.7695 8.32007 100.762 8.60807 101.466 9.18407C102.65 10.1441 102.97 11.4561 102.97 13.1841V19.0081C102.97 20.4481 103.514 20.8961 104.058 20.8961C104.442 20.8961 104.89 20.7361 105.21 20.5761L105.53 21.4401ZM100.218 20.0641V15.0401C99.5455 15.3921 98.2335 16.0001 97.5295 16.3201C96.3455 16.8961 95.6735 17.4721 95.6735 18.6561C95.6735 20.3201 96.9215 21.0881 97.8815 21.0881C98.6495 21.0881 99.6415 20.6081 100.218 20.0641Z" fill="#7FBFFF"/>
<path d="M85.115 11.7119H85.179C86.171 10.0159 87.515 8.31986 88.987 8.31986C90.139 8.31986 90.907 9.18386 90.907 9.98386C90.907 10.7199 90.459 11.3919 89.787 11.7119C89.403 11.8719 89.115 11.8079 88.923 11.6159C88.443 11.1679 88.059 10.9759 87.515 10.9759C86.747 10.9759 85.787 11.8079 85.115 13.5039V19.3919C85.115 21.4719 85.275 21.6639 87.739 21.8559V22.7199H80.123V21.8559C82.075 21.6639 82.299 21.4719 82.299 19.3919V12.7039C82.299 10.6559 82.139 10.5599 80.379 10.2719V9.53586C82.011 9.27986 83.483 8.89586 85.115 8.25586V11.7119Z" fill="#7FBFFF"/>
<path d="M78.8581 21.4401L75.9781 23.1041C75.4341 23.1041 74.7621 22.8161 74.4101 22.4641C73.9941 22.0481 73.7701 21.6001 73.6421 21.0881C72.3621 21.9521 70.8261 23.1041 69.9301 23.1041C67.5941 23.1041 65.9941 21.1521 65.9941 19.1681C65.9941 17.5681 66.8261 16.6081 68.5541 16.0321C70.4741 15.3601 72.8421 14.4961 73.5461 13.9201V13.2801C73.5461 11.0401 72.5221 9.76007 70.9861 9.76007C70.4101 9.76007 69.9301 9.98407 69.6101 10.3681C69.2261 10.8161 68.9381 11.5201 68.6821 12.5121C68.5221 13.0881 68.1701 13.3121 67.6581 13.3121C67.0501 13.3121 66.1541 12.6721 66.1541 11.9041C66.1541 11.3921 66.5701 11.0401 67.2101 10.5601C68.1381 9.88807 70.2821 8.67207 72.1061 8.32007C73.0981 8.32007 74.0901 8.60807 74.7941 9.18407C75.9781 10.1441 76.2981 11.4561 76.2981 13.1841V19.0081C76.2981 20.4481 76.8421 20.8961 77.3861 20.8961C77.7701 20.8961 78.2181 20.7361 78.5381 20.5761L78.8581 21.4401ZM73.5461 20.0641V15.0401C72.8741 15.3921 71.5621 16.0001 70.8581 16.3201C69.6741 16.8961 69.0021 17.4721 69.0021 18.6561C69.0021 20.3201 70.2501 21.0881 71.2101 21.0881C71.9781 21.0881 72.9701 20.6081 73.5461 20.0641Z" fill="#7FBFFF"/>
<path d="M63.7785 22.7199H56.8345V21.8559C58.6265 21.6639 58.9465 21.5039 58.9465 19.2959V13.9199C58.9465 11.5839 58.0825 10.3359 56.2585 10.3359C55.1705 10.3359 54.0505 10.9119 52.8665 11.8719C52.9305 12.2559 52.9625 12.6399 52.9625 13.2159V19.4879C52.9625 21.4719 53.2505 21.6639 54.9465 21.8559V22.7199H48.0025V21.8559C49.8905 21.6639 50.1465 21.5039 50.1465 19.4559V13.8879C50.1465 11.5199 49.2825 10.3039 47.4585 10.3039C46.2745 10.3039 45.0905 11.1039 44.1625 11.8719V19.4559C44.1625 21.4719 44.4185 21.6639 45.9225 21.8559V22.7199H39.0105V21.8559C41.0905 21.6639 41.3465 21.5039 41.3465 19.3919V12.7679C41.3465 10.7519 41.2505 10.5919 39.4585 10.3039V9.53588C40.8665 9.27988 42.5945 8.86388 44.1305 8.22388V10.8159C44.8025 10.3359 45.4745 9.79188 46.4025 9.21588C47.2665 8.67188 48.0345 8.31988 49.0585 8.31988C50.6265 8.31988 51.9705 9.31188 52.6105 10.9439C53.5385 10.2399 54.4345 9.66388 55.2025 9.15188C55.9065 8.70388 56.7385 8.31988 57.6345 8.31988C60.1945 8.31988 61.7625 10.1119 61.7625 13.2479V19.4239C61.7625 21.5359 61.9545 21.6319 63.7785 21.8559V22.7199Z" fill="#7FBFFF"/>
<path d="M33.4924 5.66404C32.5644 5.66404 31.7644 4.86404 31.7644 3.93604C31.7644 2.91204 32.5644 2.14404 33.5244 2.14404C34.4524 2.14404 35.2204 2.91204 35.2204 3.93604C35.2204 4.86404 34.4524 5.66404 33.4924 5.66404ZM37.3324 22.72H30.0684V21.856C32.0524 21.664 32.2764 21.472 32.2764 19.296V12.736C32.2764 10.72 32.1484 10.592 30.3244 10.304V9.50404C31.9884 9.24804 33.6204 8.83204 35.0924 8.28804V19.296C35.0924 21.472 35.2844 21.664 37.3324 21.856V22.72Z" fill="#7FBFFF"/>
<path d="M28.3146 22.72H20.9546V21.856C22.9706 21.632 23.2266 21.472 23.2266 19.36V4.288C23.2266 2.176 23.0346 2.08 21.0506 1.888V1.12C22.7466 0.927999 24.8266 0.384001 26.0106 0V19.36C26.0106 21.472 26.2666 21.664 28.3146 21.856V22.72Z" fill="#7FBFFF"/>
<path d="M18.336 17.0559L19.296 17.4079C18.848 18.8799 18.048 21.2799 17.472 22.3359C16.576 22.5599 13.856 23.1999 11.584 23.1999C3.52 23.1999 0 17.6639 0 12.6079C0 5.88794 5.152 1.43994 12.416 1.43994C15.008 1.43994 17.216 2.14394 18.08 2.30394C18.336 4.09594 18.56 5.43994 18.752 7.19994L17.76 7.42394C16.896 3.96794 14.88 2.65594 11.584 2.65594C6.368 2.65594 3.584 7.13594 3.584 11.9679C3.584 17.9199 7.008 21.9839 11.808 21.9839C14.976 21.9839 16.704 20.2239 18.336 17.0559Z" fill="#7FBFFF"/>
</svg>
