<svg preserveAspectRatio="none" width="100%" height="100%" overflow="visible" style="display: block;" viewBox="0 0 152.363 26.1001" fill="none" xmlns="http://www.w3.org/2000/svg">
<g id="Somewhere">
<path id="Vector" d="M145.847 13.1761H145.919C147.035 11.2681 148.547 9.36006 150.203 9.36006C151.499 9.36006 152.363 10.3321 152.363 11.2321C152.363 12.0601 151.859 12.8161 151.103 13.1761C150.671 13.3561 150.347 13.2841 150.131 13.0681C149.591 12.5641 149.159 12.3481 148.547 12.3481C147.683 12.3481 146.603 13.2841 145.847 15.1921V21.8161C145.847 24.1561 146.027 24.3721 148.799 24.5881V25.5601H140.231V24.5881C142.427 24.3721 142.679 24.1561 142.679 21.8161V14.2921C142.679 11.9881 142.499 11.8801 140.519 11.5561V10.7281C142.355 10.4401 144.011 10.0081 145.847 9.28806V13.1761Z" fill="var(--fill-0, white)"/>
<path id="Vector_2" d="M137.503 21.6361L138.079 22.4281C135.811 25.3441 133.291 25.9921 132.103 25.9921C127.603 25.9921 125.011 22.3921 125.011 18.3241C125.011 15.8041 125.947 13.5721 127.423 11.9881C128.935 10.3321 130.879 9.36006 132.751 9.36006C135.811 9.36006 138.259 12.0601 138.223 14.9041C138.223 15.6241 138.079 15.9481 137.359 16.0921C136.783 16.1641 132.283 16.5241 128.107 16.6681C128.179 21.3841 130.879 23.4001 133.399 23.4001C134.839 23.4001 136.207 22.8241 137.503 21.6361ZM131.923 10.6921C130.339 10.6921 128.791 12.2401 128.323 15.1561C130.231 15.1561 132.103 15.1201 134.083 15.0481C134.695 15.0481 134.911 14.8681 134.911 14.3281C134.947 12.4561 133.795 10.6921 131.923 10.6921Z" fill="var(--fill-0, white)"/>
<path id="Vector_3" d="M123.061 25.5601H115.321V24.5881C117.337 24.3721 117.589 24.1201 117.589 21.8521V15.8401C117.589 12.8881 116.437 11.5201 114.241 11.5201C112.945 11.5201 111.649 12.1321 110.677 13.2121V21.8521C110.677 24.1201 110.893 24.3721 112.909 24.5881V25.5601H105.097V24.5881C107.257 24.3721 107.545 24.1921 107.545 21.8161V4.71606C107.545 2.48406 107.437 2.34006 105.169 2.12406V1.26006C106.933 1.00806 109.165 0.432058 110.677 5.72205e-05V11.9161C111.973 10.6561 113.881 9.36006 115.789 9.36006C118.741 9.36006 120.757 11.2321 120.757 15.4801V21.8521C120.757 24.1921 121.009 24.3721 123.061 24.5881V25.5601Z" fill="var(--fill-0, white)"/>
<path id="Vector_4" d="M104.686 9.79206V10.7641C102.886 11.0161 102.562 11.4481 101.842 13.3921C100.69 16.3441 99.1063 21.0601 97.4503 25.9561H96.3703C94.9303 22.1401 93.4543 18.6481 92.0143 14.9761C90.6463 18.5401 89.2063 22.0681 87.8023 25.9561H86.6863C85.3903 21.6361 83.9863 17.3521 82.5103 13.1041C81.8983 11.2321 81.5743 10.9801 79.8823 10.7641V9.79206H87.5863V10.7641C85.4263 11.0881 85.2823 11.3401 85.7503 12.8881C86.5783 15.5521 87.4423 18.3241 88.3063 21.0241H88.3783C89.7103 17.6041 91.0063 14.0041 92.4823 9.97206H93.4903C94.8223 13.6441 96.2983 17.3521 97.7743 21.1321H97.8463C98.6023 18.7921 99.6103 15.5521 100.222 13.1041C100.654 11.3401 100.438 11.0881 98.1343 10.7641V9.79206H104.686Z" fill="var(--fill-0, white)"/>
<path id="Vector_5" d="M77.7026 21.6361L78.2786 22.4281C76.0106 25.3441 73.4906 25.9921 72.3026 25.9921C67.8026 25.9921 65.2106 22.3921 65.2106 18.3241C65.2106 15.8041 66.1466 13.5721 67.6226 11.9881C69.1346 10.3321 71.0786 9.36006 72.9506 9.36006C76.0106 9.36006 78.4586 12.0601 78.4226 14.9041C78.4226 15.6241 78.2786 15.9481 77.5586 16.0921C76.9826 16.1641 72.4826 16.5241 68.3066 16.6681C68.3786 21.3841 71.0786 23.4001 73.5986 23.4001C75.0386 23.4001 76.4066 22.8241 77.7026 21.6361ZM72.1226 10.6921C70.5386 10.6921 68.9906 12.2401 68.5226 15.1561C70.4306 15.1561 72.3026 15.1201 74.2826 15.0481C74.8946 15.0481 75.1106 14.8681 75.1106 14.3281C75.1466 12.4561 73.9946 10.6921 72.1226 10.6921Z" fill="var(--fill-0, white)"/>
<path id="Vector_6" d="M63.2193 25.5601H55.4073V24.5881C57.4233 24.3721 57.7833 24.1921 57.7833 21.7081V15.6601C57.7833 13.0321 56.8113 11.6281 54.7593 11.6281C53.5353 11.6281 52.2753 12.2761 50.9433 13.3561C51.0153 13.7881 51.0513 14.2201 51.0513 14.8681V21.9241C51.0513 24.1561 51.3753 24.3721 53.2833 24.5881V25.5601H45.4713V24.5881C47.5953 24.3721 47.8833 24.1921 47.8833 21.8881V15.6241C47.8833 12.9601 46.9113 11.5921 44.8593 11.5921C43.5273 11.5921 42.1953 12.4921 41.1513 13.3561V21.8881C41.1513 24.1561 41.4393 24.3721 43.1313 24.5881V25.5601H35.3553V24.5881C37.6953 24.3721 37.9833 24.1921 37.9833 21.8161V14.3641C37.9833 12.0961 37.8753 11.9161 35.8593 11.5921V10.7281C37.4433 10.4401 39.3873 9.97206 41.1153 9.25206V12.1681C41.8713 11.6281 42.6273 11.0161 43.6713 10.3681C44.6433 9.75606 45.5073 9.36006 46.6593 9.36006C48.4233 9.36006 49.9353 10.4761 50.6553 12.3121C51.6993 11.5201 52.7073 10.8721 53.5714 10.2961C54.3633 9.79206 55.2993 9.36006 56.3073 9.36006C59.1873 9.36006 60.9513 11.3761 60.9513 14.9041V21.8521C60.9513 24.2281 61.1673 24.3361 63.2193 24.5881V25.5601Z" fill="var(--fill-0, white)"/>
<path id="Vector_7" d="M25.6371 9.36006C30.1731 9.36006 33.4851 12.9961 33.4851 17.3881C33.4851 23.2201 29.2731 25.9921 25.6011 25.9921C20.5251 25.9921 17.6091 21.9961 17.6091 18.0361C17.6091 12.0961 22.2171 9.36006 25.6371 9.36006ZM25.2051 10.5841C23.1171 10.5841 21.2811 12.7441 21.2811 16.8481C21.2811 21.3841 23.1171 24.7681 25.9971 24.7681C28.0491 24.7681 29.8131 23.2561 29.8131 18.2521C29.8131 13.8961 28.1931 10.5841 25.2051 10.5841Z" fill="var(--fill-0, white)"/>
<path id="Vector_8" d="M13.464 7.48806L12.384 7.70406C11.736 5.43606 10.692 2.88005 7.632 2.88005C5.004 2.88005 3.708 4.78806 3.708 6.76806C3.708 9.28806 5.364 10.5121 8.28 11.9881C11.268 13.5001 14.508 15.2281 14.508 19.1881C14.508 23.0401 11.268 26.1001 6.372 26.1001C4.932 26.1001 3.744 25.8481 2.844 25.5601C1.908 25.2721 1.368 24.9841 0.972 24.8041C0.684 24.0121 0.216 20.9521 0 19.1161L1.116 18.8281C1.692 21.0601 3.384 24.7681 7.056 24.7681C9.684 24.7681 11.268 23.1121 11.268 20.5561C11.268 18.0001 9.36 16.7041 6.66 15.2641C4.104 13.9321 0.648 12.0961 0.648 8.13606C0.648 4.60806 3.492 1.62006 8.208 1.62006C10.008 1.62006 11.592 2.08806 12.816 2.48406C12.96 3.78006 13.176 5.22006 13.464 7.48806Z" fill="var(--fill-0, white)"/>
</g>
</svg>
