<svg width="151" height="27" viewBox="0 0 151 27" fill="none" xmlns="http://www.w3.org/2000/svg">
<path d="M138.462 13.7881L137.958 12.9241C139.83 10.8721 142.098 9.36011 143.142 9.36011C144.114 9.36011 144.186 10.9441 143.646 13.5361L143.286 15.3001H143.394C145.194 11.8441 147.282 9.36011 148.722 9.36011C149.37 9.36011 150.018 9.75611 150.306 10.2961C150.63 10.7641 150.594 11.4121 150.27 11.9521C149.982 12.4201 149.622 12.8161 149.262 13.0681C148.938 13.3201 148.65 13.3201 148.434 13.1041C148.038 12.6721 147.606 12.4561 147.174 12.4561C146.778 12.4561 146.238 12.8161 145.446 13.9321C144.618 15.0841 143.574 16.7761 142.962 18.3241C142.422 20.6281 141.954 23.0041 141.522 25.3081C140.658 25.4521 139.578 25.7041 138.714 25.9921L138.426 25.7041C139.362 21.8881 140.334 17.5681 141.018 13.7161C141.234 12.5281 141.234 12.1321 140.946 12.1321C140.622 12.1321 139.434 12.8521 138.462 13.7881Z" fill="black"/>
<path d="M134.455 20.9881L135.067 21.8161C131.899 25.2361 129.199 25.9921 127.327 25.9921C125.563 25.9921 123.259 24.9841 123.259 20.7001C123.259 17.3521 124.771 13.5721 127.579 11.4481C129.091 10.2601 131.107 9.36011 132.727 9.36011C134.743 9.36011 135.967 10.7281 135.967 12.2761C135.967 15.8761 129.991 17.7841 126.535 18.6841C126.463 19.1161 126.463 19.4401 126.463 19.8001C126.463 21.7081 127.075 23.7241 129.199 23.7241C130.711 23.7241 132.655 22.7161 134.455 20.9881ZM131.323 10.8721C130.855 10.8721 130.315 11.0161 129.919 11.2681C128.983 11.8441 127.255 13.5721 126.679 17.5321C131.575 16.1641 133.051 14.5441 133.051 12.8161C133.051 11.5561 132.295 10.8721 131.323 10.8721Z" fill="black"/>
<path d="M120.385 21.6L120.889 22.464C118.837 24.732 116.605 25.992 115.489 25.992C114.553 25.992 114.229 24.984 114.805 22.392L116.713 14.184C117.109 12.384 116.929 11.736 116.389 11.736C114.841 11.736 110.917 15.516 109.153 18.576C108.757 20.232 108.109 23.508 107.785 25.308C106.849 25.452 105.805 25.704 104.941 25.992L104.689 25.704C106.201 18.792 107.749 11.592 109.153 4.212C109.513 2.34 109.333 2.232 107.893 2.196H106.921L107.065 1.26C110.053 0.972001 112.069 0 112.573 0C112.933 0 112.969 0.288 112.753 1.224L109.585 15.984H109.657C111.997 12.888 114.517 11.016 116.101 10.152C117.001 9.648 117.901 9.36 118.621 9.36C119.521 9.36 120.601 10.008 119.665 14.076L117.865 21.852C117.649 22.896 117.685 23.184 117.973 23.184C118.297 23.184 119.449 22.5 120.385 21.6Z" fill="black"/>
<path d="M95.9459 22.0681H96.0179C97.4579 20.0881 100.842 15.3721 100.878 13.1041C100.878 12.3481 100.662 11.7721 100.482 11.4121C100.338 11.1241 100.338 10.7641 100.482 10.4761C100.734 9.86411 101.382 9.36011 102.03 9.36011C102.966 9.36011 103.686 10.1881 103.65 11.4841C103.65 12.6721 103.002 13.8961 102.21 15.2281C100.986 17.1721 96.5579 23.2921 94.5779 25.9921H93.4619C93.1379 22.2841 92.7779 18.5761 92.3819 15.0481H92.3099C90.0779 18.7561 87.5579 22.8601 85.6139 25.9921H84.5699C84.5339 22.5721 84.3179 17.6401 84.1379 14.4001C84.0659 12.7801 83.9579 12.1321 83.5979 12.1321C83.3459 12.1321 82.7699 12.5641 81.4739 13.8961L80.8979 13.1401C82.4459 11.0881 84.3899 9.36011 85.6139 9.36011C86.5139 9.36011 86.9459 10.4761 87.0179 13.0681C87.0899 15.9121 87.1619 18.9361 87.1259 21.2041H87.1979C89.3219 17.6041 91.6259 13.7521 93.7499 9.90011H94.6859C95.1539 13.9321 95.5139 18.0361 95.9459 22.0681Z" fill="black"/>
<path d="M77.7026 21.6361L78.2786 22.4281C76.0106 25.3441 73.4906 25.9921 72.3026 25.9921C67.8026 25.9921 65.2106 22.3921 65.2106 18.3241C65.2106 15.8041 66.1466 13.5721 67.6226 11.9881C69.1346 10.3321 71.0786 9.36011 72.9506 9.36011C76.0106 9.36011 78.4586 12.0601 78.4226 14.9041C78.4226 15.6241 78.2786 15.9481 77.5586 16.0921C76.9826 16.1641 72.4826 16.5241 68.3066 16.6681C68.3786 21.3841 71.0786 23.4001 73.5986 23.4001C75.0386 23.4001 76.4066 22.8241 77.7026 21.6361ZM72.1226 10.6921C70.5386 10.6921 68.9906 12.2401 68.5226 15.1561C70.4306 15.1561 72.3026 15.1201 74.2826 15.0481C74.8946 15.0481 75.1106 14.8681 75.1106 14.3281C75.1466 12.4561 73.9946 10.6921 72.1226 10.6921Z" fill="black"/>
<path d="M63.2193 25.56H55.4073V24.588C57.4233 24.372 57.7833 24.192 57.7833 21.708V15.66C57.7833 13.032 56.8113 11.628 54.7593 11.628C53.5353 11.628 52.2753 12.276 50.9433 13.356C51.0153 13.788 51.0513 14.22 51.0513 14.868V21.924C51.0513 24.156 51.3753 24.372 53.2833 24.588V25.56H45.4713V24.588C47.5953 24.372 47.8833 24.192 47.8833 21.888V15.624C47.8833 12.96 46.9113 11.592 44.8593 11.592C43.5273 11.592 42.1953 12.492 41.1513 13.356V21.888C41.1513 24.156 41.4393 24.372 43.1313 24.588V25.56H35.3553V24.588C37.6953 24.372 37.9833 24.192 37.9833 21.816V14.364C37.9833 12.096 37.8753 11.916 35.8593 11.592V10.728C37.4433 10.44 39.3873 9.97195 41.1153 9.25195V12.168C41.8713 11.628 42.6273 11.016 43.6713 10.368C44.6433 9.75595 45.5073 9.35995 46.6593 9.35995C48.4233 9.35995 49.9353 10.476 50.6553 12.312C51.6993 11.52 52.7073 10.872 53.5714 10.296C54.3633 9.79195 55.2993 9.35995 56.3073 9.35995C59.1873 9.35995 60.9513 11.376 60.9513 14.904V21.852C60.9513 24.228 61.1673 24.336 63.2193 24.588V25.56Z" fill="black"/>
<path d="M25.6371 9.36011C30.1731 9.36011 33.4851 12.9961 33.4851 17.3881C33.4851 23.2201 29.2731 25.9921 25.6011 25.9921C20.5251 25.9921 17.6091 21.9961 17.6091 18.0361C17.6091 12.0961 22.2171 9.36011 25.6371 9.36011ZM25.2051 10.5841C23.1171 10.5841 21.2811 12.7441 21.2811 16.8481C21.2811 21.3841 23.1171 24.7681 25.9971 24.7681C28.0491 24.7681 29.8131 23.2561 29.8131 18.2521C29.8131 13.8961 28.1931 10.5841 25.2051 10.5841Z" fill="black"/>
<path d="M13.464 7.48812L12.384 7.70412C11.736 5.43612 10.692 2.88012 7.632 2.88012C5.004 2.88012 3.708 4.78812 3.708 6.76812C3.708 9.28812 5.364 10.5121 8.28 11.9881C11.268 13.5001 14.508 15.2281 14.508 19.1881C14.508 23.0401 11.268 26.1001 6.372 26.1001C4.932 26.1001 3.744 25.8481 2.844 25.5601C1.908 25.2721 1.368 24.9841 0.972 24.8041C0.684 24.0121 0.216 20.9521 0 19.1161L1.116 18.8281C1.692 21.0601 3.384 24.7681 7.056 24.7681C9.684 24.7681 11.268 23.1121 11.268 20.5561C11.268 18.0001 9.36 16.7041 6.66 15.2641C4.104 13.9321 0.648 12.0961 0.648 8.13612C0.648 4.60812 3.492 1.62012 8.208 1.62012C10.008 1.62012 11.592 2.08812 12.816 2.48412C12.96 3.78012 13.176 5.22012 13.464 7.48812Z" fill="black"/>
</svg>
